<svg xmlns="http://www.w3.org/2000/svg" xmlns:xlink="http://www.w3.org/1999/xlink" width="500" zoomAndPan="magnify" viewBox="0 0 375 374.999991" height="500" preserveAspectRatio="xMidYMid meet" version="1.2"><defs><clipPath id="f6547b11f0"><path d="M 8 140 L 69 140 L 69 204 L 8 204 Z M 8 140 "/></clipPath><clipPath id="ab34f75898"><path d="M 2.097656 186.71875 L 42.214844 126.929688 L 82.070312 153.675781 L 41.953125 213.460938 Z M 2.097656 186.71875 "/></clipPath><clipPath id="64ca6ffa4d"><path d="M 2.097656 186.71875 L 42.214844 126.929688 L 82.070312 153.675781 L 41.953125 213.460938 Z M 2.097656 186.71875 "/></clipPath><clipPath id="af16181b3f"><path d="M 9 141 L 68 141 L 68 201 L 9 201 Z M 9 141 "/></clipPath><clipPath id="3dca0086a4"><path d="M 2.097656 186.71875 L 42.214844 126.929688 L 82.070312 153.675781 L 41.953125 213.460938 Z M 2.097656 186.71875 "/></clipPath><clipPath id="274a4397d6"><path d="M 2.097656 186.71875 L 42.214844 126.929688 L 82.070312 153.675781 L 41.953125 213.460938 Z M 2.097656 186.71875 "/></clipPath><clipPath id="69594bd6d5"><path d="M 15 186 L 27 186 L 27 193 L 15 193 Z M 15 186 "/></clipPath><clipPath id="df30eed11b"><path d="M 2.097656 186.71875 L 42.214844 126.929688 L 82.070312 153.675781 L 41.953125 213.460938 Z M 2.097656 186.71875 "/></clipPath><clipPath id="c1b4f72891"><path d="M 2.097656 186.71875 L 42.214844 126.929688 L 82.070312 153.675781 L 41.953125 213.460938 Z M 2.097656 186.71875 "/></clipPath><clipPath id="ca7567192d"><path d="M 32 155 L 44 155 L 44 169 L 32 169 Z M 32 155 "/></clipPath><clipPath id="e03d51b957"><path d="M 2.097656 186.71875 L 42.214844 126.929688 L 82.070312 153.675781 L 41.953125 213.460938 Z M 2.097656 186.71875 "/></clipPath><clipPath id="251494ae4f"><path d="M 2.097656 186.71875 L 42.214844 126.929688 L 82.070312 153.675781 L 41.953125 213.460938 Z M 2.097656 186.71875 "/></clipPath><clipPath id="caa1588636"><path d="M 32 152 L 66 152 L 66 182 L 32 182 Z M 32 152 "/></clipPath><clipPath id="bb4dfd1940"><path d="M 2.097656 186.71875 L 42.214844 126.929688 L 82.070312 153.675781 L 41.953125 213.460938 Z M 2.097656 186.71875 "/></clipPath><clipPath id="eee0d5f22e"><path d="M 2.097656 186.71875 L 42.214844 126.929688 L 82.070312 153.675781 L 41.953125 213.460938 Z M 2.097656 186.71875 "/></clipPath><clipPath id="94e6e835df"><path d="M 23 164 L 39 164 L 39 171 L 23 171 Z M 23 164 "/></clipPath><clipPath id="6dd60946a1"><path d="M 2.097656 186.71875 L 42.214844 126.929688 L 82.070312 153.675781 L 41.953125 213.460938 Z M 2.097656 186.71875 "/></clipPath><clipPath id="f3c6d7f6a3"><path d="M 2.097656 186.71875 L 42.214844 126.929688 L 82.070312 153.675781 L 41.953125 213.460938 Z M 2.097656 186.71875 "/></clipPath><clipPath id="86557b1fcf"><path d="M 55 165 L 59 165 L 59 171 L 55 171 Z M 55 165 "/></clipPath><clipPath id="f214c879fa"><path d="M 2.097656 186.71875 L 42.214844 126.929688 L 82.070312 153.675781 L 41.953125 213.460938 Z M 2.097656 186.71875 "/></clipPath><clipPath id="26b1ee8a73"><path d="M 2.097656 186.71875 L 42.214844 126.929688 L 82.070312 153.675781 L 41.953125 213.460938 Z M 2.097656 186.71875 "/></clipPath><clipPath id="d327ec90a0"><path d="M 40 156 L 60 156 L 60 174 L 40 174 Z M 40 156 "/></clipPath><clipPath id="337035570c"><path d="M 2.097656 186.71875 L 42.214844 126.929688 L 82.070312 153.675781 L 41.953125 213.460938 Z M 2.097656 186.71875 "/></clipPath><clipPath id="ef195159e6"><path d="M 2.097656 186.71875 L 42.214844 126.929688 L 82.070312 153.675781 L 41.953125 213.460938 Z M 2.097656 186.71875 "/></clipPath><clipPath id="0bf2d3072b"><path d="M 32 171 L 47 171 L 47 183 L 32 183 Z M 32 171 "/></clipPath><clipPath id="14401dc84f"><path d="M 2.097656 186.71875 L 42.214844 126.929688 L 82.070312 153.675781 L 41.953125 213.460938 Z M 2.097656 186.71875 "/></clipPath><clipPath id="9084b81643"><path d="M 2.097656 186.71875 L 42.214844 126.929688 L 82.070312 153.675781 L 41.953125 213.460938 Z M 2.097656 186.71875 "/></clipPath><clipPath id="5e10b25c68"><path d="M 22 187 L 29 187 L 29 192 L 22 192 Z M 22 187 "/></clipPath><clipPath id="4c1c63e75d"><path d="M 2.097656 186.71875 L 42.214844 126.929688 L 82.070312 153.675781 L 41.953125 213.460938 Z M 2.097656 186.71875 "/></clipPath><clipPath id="7647eea259"><path d="M 2.097656 186.71875 L 42.214844 126.929688 L 82.070312 153.675781 L 41.953125 213.460938 Z M 2.097656 186.71875 "/></clipPath></defs><g id="fcf1ef9378"><rect x="0" width="375" y="0" height="374.999991" style="fill:#ffffff;fill-opacity:1;stroke:none;"/><rect x="0" width="375" y="0" height="374.999991" style="fill:#1b2123;fill-opacity:1;stroke:none;"/><g style="fill:#ffffff;fill-opacity:1;"><g transform="translate(29.935813, 208.07738)"><path style="stroke:none" d="M 40.046875 -17.578125 C 40.046875 -17.492188 39.976562 -16.472656 39.84375 -14.515625 L 14.1875 -14.515625 C 14.707031 -12.691406 15.71875 -11.289062 17.21875 -10.3125 C 18.71875 -9.34375 20.597656 -8.859375 22.859375 -8.859375 C 24.546875 -8.859375 26.007812 -9.09375 27.25 -9.5625 C 28.488281 -10.039062 29.734375 -10.828125 30.984375 -11.921875 L 37.5 -5.140625 C 34.070312 -1.316406 29.0625 0.59375 22.46875 0.59375 C 18.34375 0.59375 14.71875 -0.1875 11.59375 -1.75 C 8.46875 -3.320312 6.046875 -5.492188 4.328125 -8.265625 C 2.617188 -11.046875 1.765625 -14.191406 1.765625 -17.703125 C 1.765625 -21.179688 2.597656 -24.296875 4.265625 -27.046875 C 5.929688 -29.804688 8.238281 -31.96875 11.1875 -33.53125 C 14.144531 -35.09375 17.46875 -35.875 21.15625 -35.875 C 24.675781 -35.875 27.867188 -35.144531 30.734375 -33.6875 C 33.597656 -32.238281 35.863281 -30.132812 37.53125 -27.375 C 39.207031 -24.625 40.046875 -21.359375 40.046875 -17.578125 Z M 21.21875 -27.078125 C 19.3125 -27.078125 17.71875 -26.535156 16.4375 -25.453125 C 15.15625 -24.367188 14.34375 -22.894531 14 -21.03125 L 28.453125 -21.03125 C 28.109375 -22.894531 27.296875 -24.367188 26.015625 -25.453125 C 24.734375 -26.535156 23.132812 -27.078125 21.21875 -27.078125 Z M 21.21875 -27.078125 "/></g></g><g style="fill:#ffffff;fill-opacity:1;"><g transform="translate(66.780133, 208.07738)"><path style="stroke:none" d="M 19.015625 -35.875 C 24.867188 -35.875 29.335938 -34.535156 32.421875 -31.859375 C 35.503906 -29.191406 37.046875 -25.101562 37.046875 -19.59375 L 37.046875 0 L 25.515625 0 L 25.515625 -4.5625 C 23.742188 -1.125 20.273438 0.59375 15.109375 0.59375 C 12.367188 0.59375 10 0.113281 8 -0.84375 C 6.007812 -1.800781 4.503906 -3.09375 3.484375 -4.71875 C 2.460938 -6.34375 1.953125 -8.195312 1.953125 -10.28125 C 1.953125 -13.625 3.234375 -16.21875 5.796875 -18.0625 C 8.359375 -19.90625 12.304688 -20.828125 17.640625 -20.828125 L 24.671875 -20.828125 C 24.453125 -24.566406 21.957031 -26.4375 17.1875 -26.4375 C 15.5 -26.4375 13.785156 -26.164062 12.046875 -25.625 C 10.304688 -25.082031 8.832031 -24.332031 7.625 -23.375 L 3.453125 -31.765625 C 5.398438 -33.078125 7.773438 -34.085938 10.578125 -34.796875 C 13.378906 -35.515625 16.191406 -35.875 19.015625 -35.875 Z M 18.5625 -7.234375 C 19.988281 -7.234375 21.242188 -7.578125 22.328125 -8.265625 C 23.410156 -8.960938 24.191406 -9.984375 24.671875 -11.328125 L 24.671875 -14.390625 L 19.34375 -14.390625 C 15.738281 -14.390625 13.9375 -13.195312 13.9375 -10.8125 C 13.9375 -9.726562 14.347656 -8.859375 15.171875 -8.203125 C 15.992188 -7.554688 17.125 -7.234375 18.5625 -7.234375 Z M 18.5625 -7.234375 "/></g></g><g style="fill:#ffffff;fill-opacity:1;"><g transform="translate(102.71308, 208.07738)"><path style="stroke:none" d="M 16.796875 0.59375 C 13.847656 0.59375 10.941406 0.253906 8.078125 -0.421875 C 5.210938 -1.097656 2.910156 -1.976562 1.171875 -3.0625 L 4.890625 -11.53125 C 6.492188 -10.53125 8.398438 -9.734375 10.609375 -9.140625 C 12.828125 -8.554688 15.019531 -8.265625 17.1875 -8.265625 C 19.1875 -8.265625 20.609375 -8.46875 21.453125 -8.875 C 22.296875 -9.289062 22.71875 -9.890625 22.71875 -10.671875 C 22.71875 -11.453125 22.207031 -12.003906 21.1875 -12.328125 C 20.164062 -12.660156 18.550781 -12.976562 16.34375 -13.28125 C 13.519531 -13.625 11.117188 -14.078125 9.140625 -14.640625 C 7.171875 -15.210938 5.46875 -16.253906 4.03125 -17.765625 C 2.601562 -19.285156 1.890625 -21.414062 1.890625 -24.15625 C 1.890625 -26.414062 2.5625 -28.421875 3.90625 -30.171875 C 5.25 -31.929688 7.210938 -33.320312 9.796875 -34.34375 C 12.378906 -35.363281 15.472656 -35.875 19.078125 -35.875 C 21.640625 -35.875 24.175781 -35.613281 26.6875 -35.09375 C 29.207031 -34.570312 31.316406 -33.832031 33.015625 -32.875 L 29.296875 -24.484375 C 26.171875 -26.210938 22.785156 -27.078125 19.140625 -27.078125 C 17.191406 -27.078125 15.757812 -26.847656 14.84375 -26.390625 C 13.9375 -25.941406 13.484375 -25.347656 13.484375 -24.609375 C 13.484375 -23.785156 13.976562 -23.207031 14.96875 -22.875 C 15.96875 -22.550781 17.617188 -22.21875 19.921875 -21.875 C 22.828125 -21.4375 25.234375 -20.9375 27.140625 -20.375 C 29.054688 -19.8125 30.71875 -18.78125 32.125 -17.28125 C 33.539062 -15.789062 34.25 -13.695312 34.25 -11 C 34.25 -8.789062 33.570312 -6.804688 32.21875 -5.046875 C 30.875 -3.285156 28.890625 -1.90625 26.265625 -0.90625 C 23.640625 0.09375 20.484375 0.59375 16.796875 0.59375 Z M 16.796875 0.59375 "/></g></g><g style="fill:#ffffff;fill-opacity:1;"><g transform="translate(133.373127, 208.07738)"><path style="stroke:none" d="M 41.15625 -35.296875 L 25.90625 1.4375 C 24.132812 5.769531 21.96875 8.816406 19.40625 10.578125 C 16.84375 12.335938 13.71875 13.21875 10.03125 13.21875 C 8.164062 13.21875 6.285156 12.921875 4.390625 12.328125 C 2.503906 11.742188 0.972656 10.976562 -0.203125 10.03125 L 4.109375 1.375 C 4.796875 2.019531 5.628906 2.523438 6.609375 2.890625 C 7.585938 3.265625 8.578125 3.453125 9.578125 3.453125 C 10.742188 3.453125 11.707031 3.210938 12.46875 2.734375 C 13.226562 2.253906 13.867188 1.492188 14.390625 0.453125 L -0.71875 -35.296875 L 11.984375 -35.296875 L 20.640625 -13.734375 L 29.359375 -35.296875 Z M 41.15625 -35.296875 "/></g></g><g style="fill:#ffffff;fill-opacity:1;"><g transform="translate(168.785299, 208.07738)"><path style="stroke:none" d="M 49.9375 -35.875 C 54.28125 -35.875 57.742188 -34.570312 60.328125 -31.96875 C 62.910156 -29.363281 64.203125 -25.4375 64.203125 -20.1875 L 64.203125 0 L 51.828125 0 L 51.828125 -18.171875 C 51.828125 -20.640625 51.359375 -22.457031 50.421875 -23.625 C 49.492188 -24.800781 48.179688 -25.390625 46.484375 -25.390625 C 44.617188 -25.390625 43.117188 -24.738281 41.984375 -23.4375 C 40.859375 -22.132812 40.296875 -20.160156 40.296875 -17.515625 L 40.296875 0 L 27.9375 0 L 27.9375 -18.171875 C 27.9375 -22.984375 26.15625 -25.390625 22.59375 -25.390625 C 20.6875 -25.390625 19.164062 -24.738281 18.03125 -23.4375 C 16.90625 -22.132812 16.34375 -20.160156 16.34375 -17.515625 L 16.34375 0 L 3.96875 0 L 3.96875 -35.296875 L 15.75 -35.296875 L 15.75 -31.578125 C 17.050781 -33.015625 18.601562 -34.085938 20.40625 -34.796875 C 22.207031 -35.515625 24.171875 -35.875 26.296875 -35.875 C 28.773438 -35.875 30.988281 -35.414062 32.9375 -34.5 C 34.894531 -33.59375 36.484375 -32.207031 37.703125 -30.34375 C 39.085938 -32.125 40.84375 -33.488281 42.96875 -34.4375 C 45.09375 -35.394531 47.414062 -35.875 49.9375 -35.875 Z M 49.9375 -35.875 "/></g></g><g style="fill:#ffffff;fill-opacity:1;"><g transform="translate(231.863938, 208.07738)"><path style="stroke:none" d="M 40.046875 -17.578125 C 40.046875 -17.492188 39.976562 -16.472656 39.84375 -14.515625 L 14.1875 -14.515625 C 14.707031 -12.691406 15.71875 -11.289062 17.21875 -10.3125 C 18.71875 -9.34375 20.597656 -8.859375 22.859375 -8.859375 C 24.546875 -8.859375 26.007812 -9.09375 27.25 -9.5625 C 28.488281 -10.039062 29.734375 -10.828125 30.984375 -11.921875 L 37.5 -5.140625 C 34.070312 -1.316406 29.0625 0.59375 22.46875 0.59375 C 18.34375 0.59375 14.71875 -0.1875 11.59375 -1.75 C 8.46875 -3.320312 6.046875 -5.492188 4.328125 -8.265625 C 2.617188 -11.046875 1.765625 -14.191406 1.765625 -17.703125 C 1.765625 -21.179688 2.597656 -24.296875 4.265625 -27.046875 C 5.929688 -29.804688 8.238281 -31.96875 11.1875 -33.53125 C 14.144531 -35.09375 17.46875 -35.875 21.15625 -35.875 C 24.675781 -35.875 27.867188 -35.144531 30.734375 -33.6875 C 33.597656 -32.238281 35.863281 -30.132812 37.53125 -27.375 C 39.207031 -24.625 40.046875 -21.359375 40.046875 -17.578125 Z M 21.21875 -27.078125 C 19.3125 -27.078125 17.71875 -26.535156 16.4375 -25.453125 C 15.15625 -24.367188 14.34375 -22.894531 14 -21.03125 L 28.453125 -21.03125 C 28.109375 -22.894531 27.296875 -24.367188 26.015625 -25.453125 C 24.734375 -26.535156 23.132812 -27.078125 21.21875 -27.078125 Z M 21.21875 -27.078125 "/></g></g><g style="fill:#ffffff;fill-opacity:1;"><g transform="translate(268.708258, 208.07738)"><path style="stroke:none" d="M 26.953125 -35.875 C 31.335938 -35.875 34.863281 -34.570312 37.53125 -31.96875 C 40.207031 -29.363281 41.546875 -25.4375 41.546875 -20.1875 L 41.546875 0 L 29.171875 0 L 29.171875 -18.171875 C 29.171875 -22.984375 27.238281 -25.390625 23.375 -25.390625 C 21.25 -25.390625 19.546875 -24.691406 18.265625 -23.296875 C 16.984375 -21.910156 16.34375 -19.832031 16.34375 -17.0625 L 16.34375 0 L 3.96875 0 L 3.96875 -35.296875 L 15.75 -35.296875 L 15.75 -31.453125 C 17.144531 -32.878906 18.796875 -33.972656 20.703125 -34.734375 C 22.609375 -35.492188 24.691406 -35.875 26.953125 -35.875 Z M 26.953125 -35.875 "/></g></g><g style="fill:#ffffff;fill-opacity:1;"><g transform="translate(309.067859, 208.07738)"><path style="stroke:none" d="M 41.078125 -35.296875 L 41.078125 0 L 29.296875 0 L 29.296875 -3.78125 C 27.992188 -2.34375 26.429688 -1.253906 24.609375 -0.515625 C 22.785156 0.222656 20.851562 0.59375 18.8125 0.59375 C 14.257812 0.59375 10.625 -0.75 7.90625 -3.4375 C 5.195312 -6.132812 3.84375 -10.175781 3.84375 -15.5625 L 3.84375 -35.296875 L 16.21875 -35.296875 L 16.21875 -17.578125 C 16.21875 -14.929688 16.710938 -13 17.703125 -11.78125 C 18.703125 -10.570312 20.160156 -9.96875 22.078125 -9.96875 C 24.023438 -9.96875 25.617188 -10.648438 26.859375 -12.015625 C 28.097656 -13.378906 28.71875 -15.472656 28.71875 -18.296875 L 28.71875 -35.296875 Z M 41.078125 -35.296875 "/></g></g><g clip-rule="nonzero" clip-path="url(#f6547b11f0)"><g clip-rule="nonzero" clip-path="url(#ab34f75898)"><g clip-rule="nonzero" clip-path="url(#64ca6ffa4d)"><path style=" stroke:none;fill-rule:nonzero;fill:#1b2123;fill-opacity:1;" d="M 64 178.113281 C 56.433594 181.246094 48.648438 186.253906 42.085938 192.21875 C 38.816406 195.183594 35.933594 198.308594 33.511719 201.507812 L 32.273438 203.140625 L 27.121094 191.601562 C 24.84375 193.132812 19.835938 195.792969 14.5 194.117188 C 11.914062 193.308594 10.191406 191.996094 9.238281 190.113281 C 7.984375 187.640625 6.304688 180.484375 13.101562 174.820312 C 18.070312 170.308594 25.945312 169.261719 27.582031 169.085938 C 28.121094 168.75 28.605469 168.382812 29.066406 167.96875 C 30.902344 166.296875 31.996094 164.054688 33.265625 161.453125 C 35.078125 157.742188 37.332031 153.121094 42.683594 148.257812 C 43.34375 147.660156 44.042969 147.0625 44.765625 146.484375 C 51.097656 141.410156 56.15625 139.578125 60.234375 140.882812 C 62.042969 141.460938 66.734375 144.644531 68.40625 150.679688 C 69.367188 153.871094 68.347656 157.261719 66.535156 160.660156 C 65.675781 162.261719 64.023438 164.746094 61.019531 167.480469 C 60.195312 168.226562 59.453125 168.828125 58.894531 169.257812 L 65.484375 177.5 Z M 64 178.113281 "/></g></g></g><g clip-rule="nonzero" clip-path="url(#af16181b3f)"><g clip-rule="nonzero" clip-path="url(#3dca0086a4)"><g clip-rule="nonzero" clip-path="url(#274a4397d6)"><path style=" stroke:none;fill-rule:nonzero;fill:#ffffff;fill-opacity:1;" d="M 66.65625 151.0625 C 67.699219 154.535156 66.777344 157.820312 65.160156 160.609375 C 62.265625 165.609375 57.148438 169.011719 57.148438 169.011719 L 63.523438 176.988281 C 60.597656 178.199219 57.644531 179.679688 54.738281 181.386719 C 46.277344 186.359375 38.25 193.222656 32.539062 200.761719 L 27.609375 189.722656 C 27.609375 189.722656 21.402344 195.011719 14.851562 192.957031 C 10.6875 191.652344 8.25 187.285156 10.359375 180.585938 C 13.464844 171.699219 27.992188 170.273438 27.992188 170.273438 C 35.226562 165.980469 33.300781 157.246094 45.535156 147.4375 C 57.730469 137.664062 63.742188 141.375 66.65625 151.0625 Z M 66.65625 151.0625 "/></g></g></g><g clip-rule="nonzero" clip-path="url(#69594bd6d5)"><g clip-rule="nonzero" clip-path="url(#df30eed11b)"><g clip-rule="nonzero" clip-path="url(#c1b4f72891)"><path style=" stroke:none;fill-rule:nonzero;fill:#ffffff;fill-opacity:1;" d="M 26.855469 189.917969 C 26.855469 189.917969 21.90625 192.390625 18.984375 192.085938 C 15.992188 191.773438 14.816406 190.410156 15.394531 190.359375 C 15.972656 190.308594 18.816406 191.207031 20.105469 189.875 C 21.394531 188.546875 18.058594 187.621094 19.640625 187.132812 C 21.226562 186.640625 23.511719 187.097656 24.964844 187.835938 C 26.417969 188.574219 26.855469 189.917969 26.855469 189.917969 Z M 26.855469 189.917969 "/></g></g></g><g clip-rule="nonzero" clip-path="url(#ca7567192d)"><g clip-rule="nonzero" clip-path="url(#e03d51b957)"><g clip-rule="nonzero" clip-path="url(#251494ae4f)"><path style=" stroke:none;fill-rule:nonzero;fill:#ffffff;fill-opacity:1;" d="M 32.113281 168.066406 C 32.113281 168.066406 35.300781 165.859375 37.457031 161.582031 C 39.613281 157.304688 41.617188 154.65625 42.523438 155.65625 C 43.429688 156.652344 43.496094 159.242188 40.148438 163.109375 C 36.804688 166.976562 32.113281 168.066406 32.113281 168.066406 Z M 32.113281 168.066406 "/></g></g></g><g clip-rule="nonzero" clip-path="url(#caa1588636)"><g clip-rule="nonzero" clip-path="url(#bb4dfd1940)"><g clip-rule="nonzero" clip-path="url(#eee0d5f22e)"><path style=" stroke:none;fill-rule:nonzero;fill:#ffffff;fill-opacity:1;" d="M 65.789062 156.328125 C 65.777344 156.425781 65.4375 158.960938 65.160156 160.609375 C 62.265625 165.609375 57.148438 169.011719 57.148438 169.011719 L 63.523438 176.988281 C 60.59375 178.199219 57.640625 179.683594 54.738281 181.386719 C 55.210938 180.417969 55.335938 179.1875 54.636719 177.691406 C 52.566406 173.246094 50.328125 171.265625 50.328125 171.265625 C 50.328125 171.265625 47.765625 177.164062 44.1875 179.519531 C 40.636719 181.859375 32.878906 180.996094 32.757812 180.984375 C 32.824219 180.945312 36.453125 178.960938 38.132812 177.214844 C 39.828125 175.449219 39.828125 175.449219 39.828125 175.449219 C 37.050781 174.378906 34.484375 173.285156 36.035156 171.757812 C 36.035156 171.757812 44.804688 172.9375 51.777344 164.148438 C 58.75 155.359375 56.234375 151.625 59.570312 152.386719 C 62.902344 153.148438 61.058594 161.292969 62.960938 160.234375 C 64.824219 159.195312 65.757812 156.425781 65.789062 156.328125 Z M 65.789062 156.328125 "/></g></g></g><g clip-rule="nonzero" clip-path="url(#94e6e835df)"><g clip-rule="nonzero" clip-path="url(#6dd60946a1)"><g clip-rule="nonzero" clip-path="url(#f3c6d7f6a3)"><path style=" stroke:none;fill-rule:nonzero;fill:#1b2123;fill-opacity:1;" d="M 23.835938 170.886719 C 23.835938 170.886719 28.710938 170.707031 32.535156 169.265625 C 36.359375 167.828125 38.136719 164.628906 38.136719 164.628906 C 38.136719 164.628906 34.746094 167.035156 32.113281 168.066406 C 29.484375 169.101562 28.890625 169.1875 28.890625 169.1875 Z M 23.835938 170.886719 "/></g></g></g><g clip-rule="nonzero" clip-path="url(#86557b1fcf)"><g clip-rule="nonzero" clip-path="url(#f214c879fa)"><g clip-rule="nonzero" clip-path="url(#26b1ee8a73)"><path style=" stroke:none;fill-rule:nonzero;fill:#1b2123;fill-opacity:1;" d="M 55.152344 165.558594 C 55.246094 166.34375 57.140625 168.949219 58.632812 170.859375 L 58.890625 169.257812 C 57.769531 167.917969 56.839844 166.710938 56.074219 165.609375 Z M 55.152344 165.558594 "/></g></g></g><g clip-rule="nonzero" clip-path="url(#d327ec90a0)"><g clip-rule="nonzero" clip-path="url(#337035570c)"><g clip-rule="nonzero" clip-path="url(#ef195159e6)"><path style=" stroke:none;fill-rule:nonzero;fill:#1b2123;fill-opacity:1;" d="M 59.96875 156.359375 C 59.96875 156.359375 60.15625 161.414062 53.167969 167.023438 C 46.175781 172.628906 40.242188 173.539062 40.242188 173.539062 C 40.242188 173.539062 46.414062 173.746094 53.171875 169.03125 C 57.355469 165.976562 56.246094 166.777344 58.292969 163.992188 C 60.335938 161.207031 59.96875 156.359375 59.96875 156.359375 Z M 59.96875 156.359375 "/></g></g></g><g clip-rule="nonzero" clip-path="url(#0bf2d3072b)"><g clip-rule="nonzero" clip-path="url(#14401dc84f)"><g clip-rule="nonzero" clip-path="url(#9084b81643)"><path style=" stroke:none;fill-rule:nonzero;fill:#1b2123;fill-opacity:1;" d="M 43.972656 172.785156 C 42.539062 176.839844 37.632812 180.980469 32.347656 182.046875 C 32.347656 182.046875 34.429688 182.738281 39.03125 180.398438 C 43.636719 178.058594 46.285156 171.96875 46.285156 171.96875 Z M 43.972656 172.785156 "/></g></g></g><g clip-rule="nonzero" clip-path="url(#5e10b25c68)"><g clip-rule="nonzero" clip-path="url(#4c1c63e75d)"><g clip-rule="nonzero" clip-path="url(#7647eea259)"><path style=" stroke:none;fill-rule:nonzero;fill:#1b2123;fill-opacity:1;" d="M 28.121094 191.210938 C 28.066406 190.855469 27.832031 189.710938 27.085938 188.890625 C 26.34375 188.070312 22.117188 187.699219 22.117188 187.699219 C 22.117188 187.699219 24.902344 188.699219 25.796875 189.386719 C 26.6875 190.070312 27.125 191.601562 27.125 191.601562 Z M 28.121094 191.210938 "/></g></g></g></g></svg>